<?xml version="1.0" standalone="no"?>
<!DOCTYPE svg PUBLIC "-//W3C//DTD SVG 20010904//EN"
 "http://www.w3.org/TR/2001/REC-SVG-20010904/DTD/svg10.dtd">
<svg version="1.0" xmlns="http://www.w3.org/2000/svg"
 width="733.000000pt" height="733.000000pt" viewBox="0 0 733.000000 733.000000"
 preserveAspectRatio="xMidYMid meet">
<metadata>
Created by potrace 1.11, written by Peter Selinger 2001-2013
</metadata>
<g transform="translate(0.000000,733.000000) scale(0.100000,-0.100000)"
fill="#000000" stroke="none">
<path d="M3472 7138 c-4 -4 -39 -10 -77 -12 -39 -3 -104 -12 -145 -21 -41 -9
-90 -18 -109 -21 -19 -2 -55 -11 -80 -20 -25 -8 -63 -18 -86 -21 -22 -3 -49
-12 -60 -19 -11 -8 -27 -14 -36 -14 -8 0 -55 -15 -102 -34 -48 -19 -87 -31
-87 -28 0 4 -4 2 -8 -3 -4 -6 -52 -30 -107 -55 -55 -24 -115 -55 -134 -67 -19
-13 -42 -23 -53 -23 -10 0 -21 -7 -24 -15 -3 -8 -16 -17 -27 -21 -12 -4 -73
-41 -136 -83 -62 -42 -121 -80 -130 -86 -9 -5 -18 -12 -21 -16 -17 -18 -78
-58 -83 -54 -4 3 -5 2 -3 -1 2 -3 -50 -51 -117 -107 -157 -131 -379 -354 -509
-512 -14 -16 -68 -88 -121 -160 -53 -71 -105 -142 -116 -156 -11 -14 -26 -38
-32 -53 -7 -14 -16 -26 -21 -26 -4 0 -8 -7 -8 -15 0 -7 -8 -19 -18 -24 -9 -6
-13 -11 -9 -11 5 0 0 -13 -9 -29 -10 -17 -21 -28 -26 -25 -4 3 -8 -3 -8 -13 0
-10 -7 -28 -15 -40 -29 -41 -187 -347 -191 -369 -1 -5 -14 -37 -29 -69 -30
-67 -95 -235 -95 -248 0 -5 -7 -23 -15 -40 -31 -68 -113 -417 -130 -553 -4
-27 -8 -56 -11 -64 -25 -90 -24 -567 1 -683 2 -12 7 -40 10 -62 30 -223 87
-451 169 -675 60 -167 198 -449 276 -565 15 -22 29 -44 31 -50 6 -15 82 -128
96 -143 7 -7 13 -21 13 -29 0 -9 3 -14 6 -10 3 3 34 -29 67 -71 34 -42 69 -86
80 -97 10 -11 16 -27 14 -36 -3 -12 1 -15 13 -12 10 3 26 -8 43 -30 14 -19 44
-51 66 -72 22 -21 38 -42 35 -47 -3 -4 1 -8 8 -8 7 0 42 -29 78 -63 36 -34 97
-87 134 -117 38 -30 79 -65 91 -77 12 -13 27 -23 32 -23 5 0 18 -8 29 -18 10
-9 40 -31 66 -47 26 -16 44 -33 42 -37 -3 -5 -2 -8 3 -7 11 3 63 -23 63 -32 0
-4 19 -16 43 -28 23 -12 58 -31 77 -42 167 -101 445 -228 633 -289 67 -22 131
-44 142 -50 11 -5 34 -11 50 -14 41 -7 76 -16 100 -26 11 -5 36 -11 55 -14 30
-4 123 -21 220 -41 156 -32 702 -55 814 -34 24 4 74 10 112 13 37 3 75 8 83
10 9 3 32 7 51 10 118 18 386 80 435 101 17 7 64 25 105 40 94 33 178 68 254
107 33 16 68 32 79 34 11 2 23 7 26 12 3 5 26 20 51 34 79 44 204 122 224 140
11 10 28 20 38 24 10 3 18 10 18 15 0 5 5 9 10 9 6 0 21 11 34 25 13 14 26 25
30 25 4 0 16 9 28 20 12 10 25 17 30 14 4 -3 12 6 18 20 5 14 13 26 17 26 5 0
35 26 69 58 33 32 66 56 73 54 8 -3 11 0 7 7 -8 13 123 157 142 155 6 -1 12 6
12 16 0 11 14 34 31 52 16 18 38 45 47 61 9 15 20 27 24 27 4 0 8 6 8 13 0 7
10 23 23 37 13 14 26 32 30 40 4 8 29 50 57 93 27 43 50 83 50 88 0 5 4 9 9 9
5 0 12 11 15 25 4 14 13 25 22 25 8 0 12 4 9 10 -7 11 22 71 39 82 6 4 7 8 3
8 -5 0 2 19 14 42 33 65 34 67 79 178 23 58 47 116 53 130 5 14 12 33 14 44 2
10 12 46 23 80 49 147 161 590 176 693 2 18 11 65 20 105 17 80 47 274 63 408
31 255 32 381 6 620 -3 25 -7 65 -9 90 -3 25 -9 65 -15 90 -5 25 -12 64 -16
87 -10 72 -64 272 -107 398 -37 109 -139 356 -158 380 -4 6 -11 21 -15 35 -4
14 -13 32 -20 40 -7 8 -27 44 -46 80 -35 67 -163 265 -230 356 -21 29 -35 54
-32 58 4 3 0 6 -8 7 -8 0 -36 30 -64 66 -74 97 -325 346 -447 444 -194 155
-374 275 -548 365 -30 16 -56 32 -58 37 -2 4 -9 7 -15 7 -6 0 -29 9 -51 19
-120 56 -306 128 -426 164 -151 45 -207 60 -224 59 -11 -1 -27 3 -36 8 -10 5
-44 12 -76 15 -33 3 -66 7 -74 10 -8 2 -35 6 -60 10 -25 3 -72 9 -105 14 -73
11 -522 10 -533 -1z"/>
</g>
</svg>
